<?xml version="1.0" encoding="UTF-8" standalone="no"?>
<!DOCTYPE svg PUBLIC "-//W3C//DTD SVG 1.1//EN"
 "http://www.w3.org/Graphics/SVG/1.1/DTD/svg11.dtd">
<!-- Generated by graphviz version 12.2.1 (20241206.2353)
 -->
<!-- Pages: 1 -->
<svg width="541pt" height="98pt"
 viewBox="0.00 0.00 541.28 98.00" xmlns="http://www.w3.org/2000/svg" xmlns:xlink="http://www.w3.org/1999/xlink">
<g id="graph0" class="graph" transform="scale(1 1) rotate(0) translate(4 94)">
<polygon fill="white" stroke="none" points="-4,4 -4,-94 537.28,-94 537.28,4 -4,4"/>
<!-- log_summarization -->
<g id="node1" class="node">
<title>log_summarization</title>
<polygon fill="lightblue" stroke="black" points="259.65,-90 137.9,-90 137.9,-54 259.65,-54 259.65,-90"/>
<text text-anchor="middle" x="198.77" y="-65.83" font-family="Times,serif" font-size="14.00">log_summarization</text>
</g>
<!-- result_combiner -->
<g id="node3" class="node">
<title>result_combiner</title>
<polygon fill="lightblue" stroke="black" points="417.77,-63 313.27,-63 313.27,-27 417.77,-27 417.77,-63"/>
<text text-anchor="middle" x="365.52" y="-38.83" font-family="Times,serif" font-size="14.00">result_combiner</text>
</g>
<!-- log_summarization&#45;&gt;result_combiner -->
<g id="edge5" class="edge">
<title>log_summarization&#45;&gt;result_combiner</title>
<path fill="none" stroke="black" d="M259.72,-62.18C273.3,-59.95 287.77,-57.58 301.48,-55.33"/>
<polygon fill="black" stroke="black" points="301.98,-58.8 311.29,-53.72 300.85,-51.89 301.98,-58.8"/>
</g>
<!-- command_state_classifier -->
<g id="node2" class="node">
<title>command_state_classifier</title>
<polygon fill="lightblue" stroke="black" points="277.27,-36 120.27,-36 120.27,0 277.27,0 277.27,-36"/>
<text text-anchor="middle" x="198.77" y="-11.82" font-family="Times,serif" font-size="14.00">command_state_classifier</text>
</g>
<!-- command_state_classifier&#45;&gt;result_combiner -->
<g id="edge2" class="edge">
<title>command_state_classifier&#45;&gt;result_combiner</title>
<path fill="none" stroke="black" d="M277.32,-30.71C285.61,-32.07 293.95,-33.43 302.03,-34.76"/>
<polygon fill="black" stroke="black" points="301.3,-38.19 311.74,-36.35 302.44,-31.28 301.3,-38.19"/>
</g>
<!-- __end__ -->
<g id="node5" class="node">
<title>__end__</title>
<ellipse fill="none" stroke="black" cx="493.52" cy="-45" rx="39.75" ry="18"/>
<text text-anchor="middle" x="493.52" y="-38.83" font-family="Times,serif" font-size="14.00">__end__</text>
</g>
<!-- result_combiner&#45;&gt;__end__ -->
<g id="edge3" class="edge">
<title>result_combiner&#45;&gt;__end__</title>
<path fill="none" stroke="black" d="M418.14,-45C426.08,-45 434.28,-45 442.19,-45"/>
<polygon fill="black" stroke="black" points="442.02,-48.5 452.02,-45 442.02,-41.5 442.02,-48.5"/>
</g>
<!-- __start__ -->
<g id="node4" class="node">
<title>__start__</title>
<ellipse fill="none" stroke="black" cx="42.14" cy="-45" rx="42.14" ry="18"/>
<text text-anchor="middle" x="42.14" y="-38.83" font-family="Times,serif" font-size="14.00">__start__</text>
</g>
<!-- __start__&#45;&gt;log_summarization -->
<g id="edge1" class="edge">
<title>__start__&#45;&gt;log_summarization</title>
<path fill="none" stroke="black" d="M81.76,-51.74C95.29,-54.11 110.96,-56.84 126.31,-59.52"/>
<polygon fill="black" stroke="black" points="125.46,-62.93 135.91,-61.2 126.66,-56.03 125.46,-62.93"/>
</g>
<!-- __start__&#45;&gt;command_state_classifier -->
<g id="edge4" class="edge">
<title>__start__&#45;&gt;command_state_classifier</title>
<path fill="none" stroke="black" d="M81.76,-38.26C90.12,-36.8 99.29,-35.2 108.7,-33.55"/>
<polygon fill="black" stroke="black" points="109.08,-37.04 118.33,-31.87 107.88,-30.14 109.08,-37.04"/>
</g>
</g>
</svg>
