<?xml version="1.0" encoding="UTF-8" standalone="no"?>
<!DOCTYPE svg PUBLIC "-//W3C//DTD SVG 1.1//EN"
 "http://www.w3.org/Graphics/SVG/1.1/DTD/svg11.dtd">
<!-- Generated by graphviz version 12.2.1 (20241206.2353)
 -->
<!-- Pages: 1 -->
<svg width="690pt" height="44pt"
 viewBox="0.00 0.00 689.97 44.00" xmlns="http://www.w3.org/2000/svg" xmlns:xlink="http://www.w3.org/1999/xlink">
<g id="graph0" class="graph" transform="scale(1 1) rotate(0) translate(4 40)">
<polygon fill="white" stroke="none" points="-4,4 -4,-40 685.97,-40 685.97,4 -4,4"/>
<!-- query_generation -->
<g id="node1" class="node">
<title>query_generation</title>
<polygon fill="lightblue" stroke="black" points="236.92,-36 126.42,-36 126.42,0 236.92,0 236.92,-36"/>
<text text-anchor="middle" x="181.67" y="-12.95" font-family="Times,serif" font-size="14.00">query_generation</text>
</g>
<!-- retrieve_documents -->
<g id="node2" class="node">
<title>retrieve_documents</title>
<polygon fill="lightblue" stroke="black" points="396.17,-36 272.92,-36 272.92,0 396.17,0 396.17,-36"/>
<text text-anchor="middle" x="334.54" y="-12.95" font-family="Times,serif" font-size="14.00">retrieve_documents</text>
</g>
<!-- query_generation&#45;&gt;retrieve_documents -->
<g id="edge2" class="edge">
<title>query_generation&#45;&gt;retrieve_documents</title>
<path fill="none" stroke="black" d="M237.14,-18C244.94,-18 253.07,-18 261.15,-18"/>
<polygon fill="black" stroke="black" points="260.99,-21.5 270.99,-18 260.99,-14.5 260.99,-21.5"/>
</g>
<!-- generate_commands -->
<g id="node3" class="node">
<title>generate_commands</title>
<polygon fill="lightblue" stroke="black" points="560.67,-36 432.17,-36 432.17,0 560.67,0 560.67,-36"/>
<text text-anchor="middle" x="496.42" y="-12.95" font-family="Times,serif" font-size="14.00">generate_commands</text>
</g>
<!-- retrieve_documents&#45;&gt;generate_commands -->
<g id="edge4" class="edge">
<title>retrieve_documents&#45;&gt;generate_commands</title>
<path fill="none" stroke="black" d="M396.44,-18C404.3,-18 412.42,-18 420.47,-18"/>
<polygon fill="black" stroke="black" points="420.26,-21.5 430.26,-18 420.26,-14.5 420.26,-21.5"/>
</g>
<!-- __end__ -->
<g id="node5" class="node">
<title>__end__</title>
<ellipse fill="none" stroke="black" cx="639.32" cy="-18" rx="42.65" ry="18"/>
<text text-anchor="middle" x="639.32" y="-12.95" font-family="Times,serif" font-size="14.00">__end__</text>
</g>
<!-- generate_commands&#45;&gt;__end__ -->
<g id="edge3" class="edge">
<title>generate_commands&#45;&gt;__end__</title>
<path fill="none" stroke="black" d="M560.86,-18C568.91,-18 577.08,-18 584.95,-18"/>
<polygon fill="black" stroke="black" points="584.7,-21.5 594.7,-18 584.7,-14.5 584.7,-21.5"/>
</g>
<!-- __start__ -->
<g id="node4" class="node">
<title>__start__</title>
<ellipse fill="none" stroke="black" cx="45.21" cy="-18" rx="45.21" ry="18"/>
<text text-anchor="middle" x="45.21" y="-12.95" font-family="Times,serif" font-size="14.00">__start__</text>
</g>
<!-- __start__&#45;&gt;query_generation -->
<g id="edge1" class="edge">
<title>__start__&#45;&gt;query_generation</title>
<path fill="none" stroke="black" d="M90.61,-18C98.3,-18 106.45,-18 114.58,-18"/>
<polygon fill="black" stroke="black" points="114.49,-21.5 124.49,-18 114.49,-14.5 114.49,-21.5"/>
</g>
</g>
</svg>
