<?xml version="1.0" encoding="UTF-8" standalone="no"?>
<!DOCTYPE svg PUBLIC "-//W3C//DTD SVG 1.1//EN"
 "http://www.w3.org/Graphics/SVG/1.1/DTD/svg11.dtd">
<!-- Generated by graphviz version 12.2.1 (20241206.2353)
 -->
<!-- Pages: 1 -->
<svg width="665pt" height="44pt"
 viewBox="0.00 0.00 665.22 44.00" xmlns="http://www.w3.org/2000/svg" xmlns:xlink="http://www.w3.org/1999/xlink">
<g id="graph0" class="graph" transform="scale(1 1) rotate(0) translate(4 40)">
<polygon fill="white" stroke="none" points="-4,4 -4,-40 661.22,-40 661.22,4 -4,4"/>
<!-- query_processor -->
<g id="node1" class="node">
<title>query_processor</title>
<polygon fill="lightblue" stroke="black" points="231.67,-36 126.42,-36 126.42,0 231.67,0 231.67,-36"/>
<text text-anchor="middle" x="179.04" y="-12.95" font-family="Times,serif" font-size="14.00">query_processor</text>
</g>
<!-- command_generator -->
<g id="node2" class="node">
<title>command_generator</title>
<polygon fill="lightblue" stroke="black" points="396.17,-36 267.67,-36 267.67,0 396.17,0 396.17,-36"/>
<text text-anchor="middle" x="331.92" y="-12.95" font-family="Times,serif" font-size="14.00">command_generator</text>
</g>
<!-- query_processor&#45;&gt;command_generator -->
<g id="edge1" class="edge">
<title>query_processor&#45;&gt;command_generator</title>
<path fill="none" stroke="black" d="M231.97,-18C239.73,-18 247.86,-18 255.99,-18"/>
<polygon fill="black" stroke="black" points="255.92,-21.5 265.92,-18 255.92,-14.5 255.92,-21.5"/>
</g>
<!-- result_formatter -->
<g id="node3" class="node">
<title>result_formatter</title>
<polygon fill="lightblue" stroke="black" points="535.92,-36 432.17,-36 432.17,0 535.92,0 535.92,-36"/>
<text text-anchor="middle" x="484.04" y="-12.95" font-family="Times,serif" font-size="14.00">result_formatter</text>
</g>
<!-- command_generator&#45;&gt;result_formatter -->
<g id="edge4" class="edge">
<title>command_generator&#45;&gt;result_formatter</title>
<path fill="none" stroke="black" d="M396.59,-18C404.53,-18 412.65,-18 420.58,-18"/>
<polygon fill="black" stroke="black" points="420.5,-21.5 430.5,-18 420.5,-14.5 420.5,-21.5"/>
</g>
<!-- __end__ -->
<g id="node4" class="node">
<title>__end__</title>
<ellipse fill="none" stroke="black" cx="614.57" cy="-18" rx="42.65" ry="18"/>
<text text-anchor="middle" x="614.57" y="-12.95" font-family="Times,serif" font-size="14.00">__end__</text>
</g>
<!-- result_formatter&#45;&gt;__end__ -->
<g id="edge2" class="edge">
<title>result_formatter&#45;&gt;__end__</title>
<path fill="none" stroke="black" d="M536.21,-18C544.11,-18 552.29,-18 560.24,-18"/>
<polygon fill="black" stroke="black" points="560.14,-21.5 570.14,-18 560.14,-14.5 560.14,-21.5"/>
</g>
<!-- __start__ -->
<g id="node5" class="node">
<title>__start__</title>
<ellipse fill="none" stroke="black" cx="45.21" cy="-18" rx="45.21" ry="18"/>
<text text-anchor="middle" x="45.21" y="-12.95" font-family="Times,serif" font-size="14.00">__start__</text>
</g>
<!-- __start__&#45;&gt;query_processor -->
<g id="edge3" class="edge">
<title>__start__&#45;&gt;query_processor</title>
<path fill="none" stroke="black" d="M90.84,-18C98.56,-18 106.71,-18 114.81,-18"/>
<polygon fill="black" stroke="black" points="114.66,-21.5 124.66,-18 114.66,-14.5 114.66,-21.5"/>
</g>
</g>
</svg>
