<?xml version="1.0" encoding="UTF-8" standalone="no"?>
<!DOCTYPE svg PUBLIC "-//W3C//DTD SVG 1.1//EN"
 "http://www.w3.org/Graphics/SVG/1.1/DTD/svg11.dtd">
<!-- Generated by graphviz version 2.43.0 (0)
 -->
<!-- Title: %3 Pages: 1 -->
<svg width="843pt" height="206pt"
 viewBox="0.00 0.00 842.99 206.00" xmlns="http://www.w3.org/2000/svg" xmlns:xlink="http://www.w3.org/1999/xlink">
<g id="graph0" class="graph" transform="scale(1 1) rotate(0) translate(4 202)">
<title>%3</title>
<polygon fill="white" stroke="transparent" points="-4,4 -4,-202 838.99,-202 838.99,4 -4,4"/>
<!-- feedback_analyzer -->
<g id="node1" class="node">
<title>feedback_analyzer</title>
<polygon fill="lightblue" stroke="black" points="334,-36 186,-36 186,0 334,0 334,-36"/>
<text text-anchor="middle" x="260" y="-14.3" font-family="Times,serif" font-size="14.00">feedback_analyzer</text>
</g>
<!-- query_processor -->
<g id="node2" class="node">
<title>query_processor</title>
<polygon fill="lightblue" stroke="black" points="134,-198 0,-198 0,-162 134,-162 134,-198"/>
<text text-anchor="middle" x="67" y="-176.3" font-family="Times,serif" font-size="14.00">query_processor</text>
</g>
<!-- command_generator -->
<g id="node5" class="node">
<title>command_generator</title>
<polygon fill="lightblue" stroke="black" points="341.5,-198 178.5,-198 178.5,-162 341.5,-162 341.5,-198"/>
<text text-anchor="middle" x="260" y="-176.3" font-family="Times,serif" font-size="14.00">command_generator</text>
</g>
<!-- query_processor&#45;&gt;command_generator -->
<g id="edge7" class="edge">
<title>query_processor&#45;&gt;command_generator</title>
<path fill="none" stroke="black" d="M134.27,-180C145.27,-180 156.84,-180 168.32,-180"/>
<polygon fill="black" stroke="black" points="168.37,-183.5 178.37,-180 168.37,-176.5 168.37,-183.5"/>
</g>
<!-- timeout_handler -->
<g id="node3" class="node">
<title>timeout_handler</title>
<polygon fill="lightblue" stroke="black" points="327,-144 193,-144 193,-108 327,-108 327,-144"/>
<text text-anchor="middle" x="260" y="-122.3" font-family="Times,serif" font-size="14.00">timeout_handler</text>
</g>
<!-- command_modifier -->
<g id="node6" class="node">
<title>command_modifier</title>
<polygon fill="lightblue" stroke="black" points="538,-144 386,-144 386,-108 538,-108 538,-144"/>
<text text-anchor="middle" x="462" y="-122.3" font-family="Times,serif" font-size="14.00">command_modifier</text>
</g>
<!-- timeout_handler&#45;&gt;command_modifier -->
<g id="edge6" class="edge">
<title>timeout_handler&#45;&gt;command_modifier</title>
<path fill="none" stroke="black" d="M327.04,-126C342.59,-126 359.38,-126 375.64,-126"/>
<polygon fill="black" stroke="black" points="375.68,-129.5 385.68,-126 375.68,-122.5 375.68,-129.5"/>
</g>
<!-- network_error_handler -->
<g id="node4" class="node">
<title>network_error_handler</title>
<polygon fill="lightblue" stroke="black" points="350,-90 170,-90 170,-54 350,-54 350,-90"/>
<text text-anchor="middle" x="260" y="-68.3" font-family="Times,serif" font-size="14.00">network_error_handler</text>
</g>
<!-- network_error_handler&#45;&gt;command_modifier -->
<g id="edge5" class="edge">
<title>network_error_handler&#45;&gt;command_modifier</title>
<path fill="none" stroke="black" d="M327.88,-90.06C345.97,-94.94 365.7,-100.27 384.29,-105.29"/>
<polygon fill="black" stroke="black" points="383.62,-108.73 394.19,-107.96 385.45,-101.97 383.62,-108.73"/>
</g>
<!-- command_generator&#45;&gt;command_modifier -->
<g id="edge2" class="edge">
<title>command_generator&#45;&gt;command_modifier</title>
<path fill="none" stroke="black" d="M327.88,-161.94C345.97,-157.06 365.7,-151.73 384.29,-146.71"/>
<polygon fill="black" stroke="black" points="385.45,-150.03 394.19,-144.04 383.62,-143.27 385.45,-150.03"/>
</g>
<!-- result_formatter -->
<g id="node7" class="node">
<title>result_formatter</title>
<polygon fill="lightblue" stroke="black" points="708,-144 574,-144 574,-108 708,-108 708,-144"/>
<text text-anchor="middle" x="641" y="-122.3" font-family="Times,serif" font-size="14.00">result_formatter</text>
</g>
<!-- command_modifier&#45;&gt;result_formatter -->
<g id="edge3" class="edge">
<title>command_modifier&#45;&gt;result_formatter</title>
<path fill="none" stroke="black" d="M538.06,-126C546.5,-126 555.11,-126 563.57,-126"/>
<polygon fill="black" stroke="black" points="563.79,-129.5 573.79,-126 563.79,-122.5 563.79,-129.5"/>
</g>
<!-- __end__ -->
<g id="node9" class="node">
<title>__end__</title>
<ellipse fill="none" stroke="black" cx="789.5" cy="-126" rx="45.49" ry="18"/>
<text text-anchor="middle" x="789.5" y="-122.3" font-family="Times,serif" font-size="14.00">__end__</text>
</g>
<!-- result_formatter&#45;&gt;__end__ -->
<g id="edge4" class="edge">
<title>result_formatter&#45;&gt;__end__</title>
<path fill="none" stroke="black" d="M708.39,-126C716.8,-126 725.33,-126 733.54,-126"/>
<polygon fill="black" stroke="black" points="733.72,-129.5 743.72,-126 733.72,-122.5 733.72,-129.5"/>
</g>
<!-- __start__ -->
<g id="node8" class="node">
<title>__start__</title>
<ellipse fill="none" stroke="black" cx="67" cy="-18" rx="50.89" ry="18"/>
<text text-anchor="middle" x="67" y="-14.3" font-family="Times,serif" font-size="14.00">__start__</text>
</g>
<!-- __start__&#45;&gt;feedback_analyzer -->
<g id="edge1" class="edge">
<title>__start__&#45;&gt;feedback_analyzer</title>
<path fill="none" stroke="black" d="M118.18,-18C135.78,-18 156.06,-18 175.64,-18"/>
<polygon fill="black" stroke="black" points="175.8,-21.5 185.8,-18 175.8,-14.5 175.8,-21.5"/>
</g>
</g>
</svg>
