<?xml version="1.0" encoding="UTF-8" standalone="no"?>
<!DOCTYPE svg PUBLIC "-//W3C//DTD SVG 1.1//EN"
 "http://www.w3.org/Graphics/SVG/1.1/DTD/svg11.dtd">
<!-- Generated by graphviz version 2.43.0 (0)
 -->
<!-- Title: %3 Pages: 1 -->
<svg width="872pt" height="206pt"
 viewBox="0.00 0.00 871.99 206.00" xmlns="http://www.w3.org/2000/svg" xmlns:xlink="http://www.w3.org/1999/xlink">
<g id="graph0" class="graph" transform="scale(1 1) rotate(0) translate(4 202)">
<title>%3</title>
<polygon fill="white" stroke="transparent" points="-4,4 -4,-202 867.99,-202 867.99,4 -4,4"/>
<!-- feedback_analyzer -->
<g id="node1" class="node">
<title>feedback_analyzer</title>
<polygon fill="lightblue" stroke="black" points="371.5,-36 223.5,-36 223.5,0 371.5,0 371.5,-36"/>
<text text-anchor="middle" x="297.5" y="-14.3" font-family="Times,serif" font-size="14.00">feedback_analyzer</text>
</g>
<!-- query_processor -->
<g id="node2" class="node">
<title>query_processor</title>
<polygon fill="lightblue" stroke="black" points="157,-198 23,-198 23,-162 157,-162 157,-198"/>
<text text-anchor="middle" x="90" y="-176.3" font-family="Times,serif" font-size="14.00">query_processor</text>
</g>
<!-- command_generator -->
<g id="node5" class="node">
<title>command_generator</title>
<polygon fill="lightblue" stroke="black" points="379,-144 216,-144 216,-108 379,-108 379,-144"/>
<text text-anchor="middle" x="297.5" y="-122.3" font-family="Times,serif" font-size="14.00">command_generator</text>
</g>
<!-- query_processor&#45;&gt;command_generator -->
<g id="edge4" class="edge">
<title>query_processor&#45;&gt;command_generator</title>
<path fill="none" stroke="black" d="M157.15,-162.62C176.61,-157.5 198.09,-151.86 218.23,-146.57"/>
<polygon fill="black" stroke="black" points="219.22,-149.93 228,-144 217.44,-143.16 219.22,-149.93"/>
</g>
<!-- timeout_handler -->
<g id="node3" class="node">
<title>timeout_handler</title>
<polygon fill="lightblue" stroke="black" points="157,-144 23,-144 23,-108 157,-108 157,-144"/>
<text text-anchor="middle" x="90" y="-122.3" font-family="Times,serif" font-size="14.00">timeout_handler</text>
</g>
<!-- timeout_handler&#45;&gt;command_generator -->
<g id="edge1" class="edge">
<title>timeout_handler&#45;&gt;command_generator</title>
<path fill="none" stroke="black" d="M157.15,-126C172.6,-126 189.32,-126 205.64,-126"/>
<polygon fill="black" stroke="black" points="205.73,-129.5 215.73,-126 205.73,-122.5 205.73,-129.5"/>
</g>
<!-- network_error_handler -->
<g id="node4" class="node">
<title>network_error_handler</title>
<polygon fill="lightblue" stroke="black" points="180,-90 0,-90 0,-54 180,-54 180,-90"/>
<text text-anchor="middle" x="90" y="-68.3" font-family="Times,serif" font-size="14.00">network_error_handler</text>
</g>
<!-- network_error_handler&#45;&gt;command_generator -->
<g id="edge2" class="edge">
<title>network_error_handler&#45;&gt;command_generator</title>
<path fill="none" stroke="black" d="M159.71,-90.06C178.39,-94.96 198.77,-100.32 217.94,-105.36"/>
<polygon fill="black" stroke="black" points="217.29,-108.8 227.85,-107.96 219.07,-102.03 217.29,-108.8"/>
</g>
<!-- command_modifier -->
<g id="node6" class="node">
<title>command_modifier</title>
<polygon fill="lightblue" stroke="black" points="567,-144 415,-144 415,-108 567,-108 567,-144"/>
<text text-anchor="middle" x="491" y="-122.3" font-family="Times,serif" font-size="14.00">command_modifier</text>
</g>
<!-- command_generator&#45;&gt;command_modifier -->
<g id="edge5" class="edge">
<title>command_generator&#45;&gt;command_modifier</title>
<path fill="none" stroke="black" d="M379.16,-126C387.59,-126 396.18,-126 404.66,-126"/>
<polygon fill="black" stroke="black" points="404.93,-129.5 414.93,-126 404.93,-122.5 404.93,-129.5"/>
</g>
<!-- result_formatter -->
<g id="node7" class="node">
<title>result_formatter</title>
<polygon fill="lightblue" stroke="black" points="737,-144 603,-144 603,-108 737,-108 737,-144"/>
<text text-anchor="middle" x="670" y="-122.3" font-family="Times,serif" font-size="14.00">result_formatter</text>
</g>
<!-- command_modifier&#45;&gt;result_formatter -->
<g id="edge6" class="edge">
<title>command_modifier&#45;&gt;result_formatter</title>
<path fill="none" stroke="black" d="M567.06,-126C575.5,-126 584.11,-126 592.57,-126"/>
<polygon fill="black" stroke="black" points="592.79,-129.5 602.79,-126 592.79,-122.5 592.79,-129.5"/>
</g>
<!-- __end__ -->
<g id="node9" class="node">
<title>__end__</title>
<ellipse fill="none" stroke="black" cx="818.5" cy="-126" rx="45.49" ry="18"/>
<text text-anchor="middle" x="818.5" y="-122.3" font-family="Times,serif" font-size="14.00">__end__</text>
</g>
<!-- result_formatter&#45;&gt;__end__ -->
<g id="edge7" class="edge">
<title>result_formatter&#45;&gt;__end__</title>
<path fill="none" stroke="black" d="M737.39,-126C745.8,-126 754.33,-126 762.54,-126"/>
<polygon fill="black" stroke="black" points="762.72,-129.5 772.72,-126 762.72,-122.5 762.72,-129.5"/>
</g>
<!-- __start__ -->
<g id="node8" class="node">
<title>__start__</title>
<ellipse fill="none" stroke="black" cx="90" cy="-18" rx="50.89" ry="18"/>
<text text-anchor="middle" x="90" y="-14.3" font-family="Times,serif" font-size="14.00">__start__</text>
</g>
<!-- __start__&#45;&gt;feedback_analyzer -->
<g id="edge3" class="edge">
<title>__start__&#45;&gt;feedback_analyzer</title>
<path fill="none" stroke="black" d="M140.75,-18C162.46,-18 188.53,-18 213.07,-18"/>
<polygon fill="black" stroke="black" points="213.11,-21.5 223.11,-18 213.11,-14.5 213.11,-21.5"/>
</g>
</g>
</svg>
