<?xml version="1.0" encoding="UTF-8" standalone="no"?>
<!DOCTYPE svg PUBLIC "-//W3C//DTD SVG 1.1//EN"
 "http://www.w3.org/Graphics/SVG/1.1/DTD/svg11.dtd">
<!-- Generated by graphviz version 12.2.1 (20241206.2353)
 -->
<!-- Pages: 1 -->
<svg width="712pt" height="44pt"
 viewBox="0.00 0.00 711.72 44.00" xmlns="http://www.w3.org/2000/svg" xmlns:xlink="http://www.w3.org/1999/xlink">
<g id="graph0" class="graph" transform="scale(1 1) rotate(0) translate(4 40)">
<polygon fill="white" stroke="none" points="-4,4 -4,-40 707.72,-40 707.72,4 -4,4"/>
<!-- log_summarization -->
<g id="node1" class="node">
<title>log_summarization</title>
<polygon fill="lightblue" stroke="black" points="248.17,-36 126.42,-36 126.42,0 248.17,0 248.17,-36"/>
<text text-anchor="middle" x="187.29" y="-12.95" font-family="Times,serif" font-size="14.00">log_summarization</text>
</g>
<!-- command_state_classifier -->
<g id="node2" class="node">
<title>command_state_classifier</title>
<polygon fill="lightblue" stroke="black" points="441.92,-36 284.17,-36 284.17,0 441.92,0 441.92,-36"/>
<text text-anchor="middle" x="363.04" y="-12.95" font-family="Times,serif" font-size="14.00">command_state_classifier</text>
</g>
<!-- log_summarization&#45;&gt;command_state_classifier -->
<g id="edge3" class="edge">
<title>log_summarization&#45;&gt;command_state_classifier</title>
<path fill="none" stroke="black" d="M248.58,-18C256.3,-18 264.34,-18 272.41,-18"/>
<polygon fill="black" stroke="black" points="272.3,-21.5 282.3,-18 272.3,-14.5 272.3,-21.5"/>
</g>
<!-- result_combiner -->
<g id="node3" class="node">
<title>result_combiner</title>
<polygon fill="lightblue" stroke="black" points="582.42,-36 477.92,-36 477.92,0 582.42,0 582.42,-36"/>
<text text-anchor="middle" x="530.17" y="-12.95" font-family="Times,serif" font-size="14.00">result_combiner</text>
</g>
<!-- command_state_classifier&#45;&gt;result_combiner -->
<g id="edge2" class="edge">
<title>command_state_classifier&#45;&gt;result_combiner</title>
<path fill="none" stroke="black" d="M442.25,-18C450.32,-18 458.44,-18 466.31,-18"/>
<polygon fill="black" stroke="black" points="466.1,-21.5 476.1,-18 466.1,-14.5 466.1,-21.5"/>
</g>
<!-- __end__ -->
<g id="node5" class="node">
<title>__end__</title>
<ellipse fill="none" stroke="black" cx="661.07" cy="-18" rx="42.65" ry="18"/>
<text text-anchor="middle" x="661.07" y="-12.95" font-family="Times,serif" font-size="14.00">__end__</text>
</g>
<!-- result_combiner&#45;&gt;__end__ -->
<g id="edge4" class="edge">
<title>result_combiner&#45;&gt;__end__</title>
<path fill="none" stroke="black" d="M582.86,-18C590.76,-18 598.93,-18 606.87,-18"/>
<polygon fill="black" stroke="black" points="606.76,-21.5 616.76,-18 606.76,-14.5 606.76,-21.5"/>
</g>
<!-- __start__ -->
<g id="node4" class="node">
<title>__start__</title>
<ellipse fill="none" stroke="black" cx="45.21" cy="-18" rx="45.21" ry="18"/>
<text text-anchor="middle" x="45.21" y="-12.95" font-family="Times,serif" font-size="14.00">__start__</text>
</g>
<!-- __start__&#45;&gt;log_summarization -->
<g id="edge1" class="edge">
<title>__start__&#45;&gt;log_summarization</title>
<path fill="none" stroke="black" d="M90.92,-18C98.54,-18 106.62,-18 114.73,-18"/>
<polygon fill="black" stroke="black" points="114.65,-21.5 124.65,-18 114.65,-14.5 114.65,-21.5"/>
</g>
</g>
</svg>
