<?xml version="1.0" encoding="UTF-8" standalone="no"?>
<!DOCTYPE svg PUBLIC "-//W3C//DTD SVG 1.1//EN"
 "http://www.w3.org/Graphics/SVG/1.1/DTD/svg11.dtd">
<!-- Generated by graphviz version 2.43.0 (0)
 -->
<!-- Title: %3 Pages: 1 -->
<svg width="827pt" height="44pt"
 viewBox="0.00 0.00 827.38 44.00" xmlns="http://www.w3.org/2000/svg" xmlns:xlink="http://www.w3.org/1999/xlink">
<g id="graph0" class="graph" transform="scale(1 1) rotate(0) translate(4 40)">
<title>%3</title>
<polygon fill="white" stroke="transparent" points="-4,4 -4,-40 823.38,-40 823.38,4 -4,4"/>
<!-- log_summarization -->
<g id="node1" class="node">
<title>log_summarization</title>
<polygon fill="lightblue" stroke="black" points="289.39,-36 137.39,-36 137.39,0 289.39,0 289.39,-36"/>
<text text-anchor="middle" x="213.39" y="-14.3" font-family="Times,serif" font-size="14.00">log_summarization</text>
</g>
<!-- command_state_classifier -->
<g id="node2" class="node">
<title>command_state_classifier</title>
<polygon fill="lightblue" stroke="black" points="524.39,-36 325.39,-36 325.39,0 524.39,0 524.39,-36"/>
<text text-anchor="middle" x="424.89" y="-14.3" font-family="Times,serif" font-size="14.00">command_state_classifier</text>
</g>
<!-- log_summarization&#45;&gt;command_state_classifier -->
<g id="edge1" class="edge">
<title>log_summarization&#45;&gt;command_state_classifier</title>
<path fill="none" stroke="black" d="M289.43,-18C297.79,-18 306.42,-18 315.08,-18"/>
<polygon fill="black" stroke="black" points="315.26,-21.5 325.26,-18 315.26,-14.5 315.26,-21.5"/>
</g>
<!-- result_combiner -->
<g id="node3" class="node">
<title>result_combiner</title>
<polygon fill="lightblue" stroke="black" points="692.39,-36 560.39,-36 560.39,0 692.39,0 692.39,-36"/>
<text text-anchor="middle" x="626.39" y="-14.3" font-family="Times,serif" font-size="14.00">result_combiner</text>
</g>
<!-- command_state_classifier&#45;&gt;result_combiner -->
<g id="edge2" class="edge">
<title>command_state_classifier&#45;&gt;result_combiner</title>
<path fill="none" stroke="black" d="M524.47,-18C533.13,-18 541.79,-18 550.21,-18"/>
<polygon fill="black" stroke="black" points="550.33,-21.5 560.33,-18 550.33,-14.5 550.33,-21.5"/>
</g>
<!-- __end__ -->
<g id="node4" class="node">
<title>__end__</title>
<ellipse fill="none" stroke="black" cx="773.89" cy="-18" rx="45.49" ry="18"/>
<text text-anchor="middle" x="773.89" y="-14.3" font-family="Times,serif" font-size="14.00">__end__</text>
</g>
<!-- result_combiner&#45;&gt;__end__ -->
<g id="edge3" class="edge">
<title>result_combiner&#45;&gt;__end__</title>
<path fill="none" stroke="black" d="M692.48,-18C701.09,-18 709.84,-18 718.24,-18"/>
<polygon fill="black" stroke="black" points="718.29,-21.5 728.29,-18 718.29,-14.5 718.29,-21.5"/>
</g>
<!-- __start__ -->
<g id="node5" class="node">
<title>__start__</title>
<ellipse fill="none" stroke="black" cx="50.7" cy="-18" rx="50.89" ry="18"/>
<text text-anchor="middle" x="50.7" y="-14.3" font-family="Times,serif" font-size="14.00">__start__</text>
</g>
<!-- __start__&#45;&gt;log_summarization -->
<g id="edge4" class="edge">
<title>__start__&#45;&gt;log_summarization</title>
<path fill="none" stroke="black" d="M101.66,-18C109.8,-18 118.44,-18 127.15,-18"/>
<polygon fill="black" stroke="black" points="127.39,-21.5 137.39,-18 127.39,-14.5 127.39,-21.5"/>
</g>
</g>
</svg>
