<?xml version="1.0" encoding="UTF-8" standalone="no"?>
<!DOCTYPE svg PUBLIC "-//W3C//DTD SVG 1.1//EN"
 "http://www.w3.org/Graphics/SVG/1.1/DTD/svg11.dtd">
<!-- Generated by graphviz version 12.2.1 (20241206.2353)
 -->
<!-- Pages: 1 -->
<svg width="678pt" height="44pt"
 viewBox="0.00 0.00 678.03 44.00" xmlns="http://www.w3.org/2000/svg" xmlns:xlink="http://www.w3.org/1999/xlink">
<g id="graph0" class="graph" transform="scale(1 1) rotate(0) translate(4 40)">
<polygon fill="white" stroke="none" points="-4,4 -4,-40 674.03,-40 674.03,4 -4,4"/>
<!-- query_generation -->
<g id="node1" class="node">
<title>query_generation</title>
<polygon fill="lightblue" stroke="black" points="230.77,-36 120.27,-36 120.27,0 230.77,0 230.77,-36"/>
<text text-anchor="middle" x="175.52" y="-11.82" font-family="Times,serif" font-size="14.00">query_generation</text>
</g>
<!-- retrieve_documents -->
<g id="node2" class="node">
<title>retrieve_documents</title>
<polygon fill="lightblue" stroke="black" points="390.02,-36 266.77,-36 266.77,0 390.02,0 390.02,-36"/>
<text text-anchor="middle" x="328.4" y="-11.82" font-family="Times,serif" font-size="14.00">retrieve_documents</text>
</g>
<!-- query_generation&#45;&gt;retrieve_documents -->
<g id="edge1" class="edge">
<title>query_generation&#45;&gt;retrieve_documents</title>
<path fill="none" stroke="black" d="M230.99,-18C238.79,-18 246.92,-18 255,-18"/>
<polygon fill="black" stroke="black" points="254.84,-21.5 264.84,-18 254.84,-14.5 254.84,-21.5"/>
</g>
<!-- generate_commands -->
<g id="node3" class="node">
<title>generate_commands</title>
<polygon fill="lightblue" stroke="black" points="554.52,-36 426.02,-36 426.02,0 554.52,0 554.52,-36"/>
<text text-anchor="middle" x="490.27" y="-11.82" font-family="Times,serif" font-size="14.00">generate_commands</text>
</g>
<!-- retrieve_documents&#45;&gt;generate_commands -->
<g id="edge4" class="edge">
<title>retrieve_documents&#45;&gt;generate_commands</title>
<path fill="none" stroke="black" d="M390.3,-18C398.15,-18 406.27,-18 414.32,-18"/>
<polygon fill="black" stroke="black" points="414.11,-21.5 424.11,-18 414.11,-14.5 414.11,-21.5"/>
</g>
<!-- __end__ -->
<g id="node5" class="node">
<title>__end__</title>
<ellipse fill="none" stroke="black" cx="630.27" cy="-18" rx="39.75" ry="18"/>
<text text-anchor="middle" x="630.27" y="-11.82" font-family="Times,serif" font-size="14.00">__end__</text>
</g>
<!-- generate_commands&#45;&gt;__end__ -->
<g id="edge3" class="edge">
<title>generate_commands&#45;&gt;__end__</title>
<path fill="none" stroke="black" d="M555.02,-18C563,-18 571.06,-18 578.79,-18"/>
<polygon fill="black" stroke="black" points="578.7,-21.5 588.7,-18 578.7,-14.5 578.7,-21.5"/>
</g>
<!-- __start__ -->
<g id="node4" class="node">
<title>__start__</title>
<ellipse fill="none" stroke="black" cx="42.14" cy="-18" rx="42.14" ry="18"/>
<text text-anchor="middle" x="42.14" y="-11.82" font-family="Times,serif" font-size="14.00">__start__</text>
</g>
<!-- __start__&#45;&gt;query_generation -->
<g id="edge2" class="edge">
<title>__start__&#45;&gt;query_generation</title>
<path fill="none" stroke="black" d="M84.71,-18C92.37,-18 100.55,-18 108.72,-18"/>
<polygon fill="black" stroke="black" points="108.72,-21.5 118.72,-18 108.72,-14.5 108.72,-21.5"/>
</g>
</g>
</svg>
